<svg width="1920" height="1080" viewBox="0 0 1920 1080" fill="none" xmlns="http://www.w3.org/2000/svg">
<g clip-path="url(#clip0_16_2)">
<path d="M0 30L45.7333 60C91.4667 90 182.667 150 274.667 190.031C365.733 229.687 457.333 250.312 548 235.031C640 220.312 732 169.688 822.667 165C914.267 160.312 1005.33 199.688 1097.33 210C1188.53 220.312 1280 199.688 1372 169.969C1462.8 139.688 1554.67 100.312 1645.33 90C1737.2 79.6875 1828 100.313 1874.67 109.969L1920 120V0H1874.27C1828.53 0 1737.33 0 1645.33 0C1554.27 0 1462.67 0 1372 0C1280 0 1188 0 1097.33 0C1005.73 0 914.667 0 822.667 0C731.467 0 640 0 548 0C457.2 0 365.333 0 274.667 0C182.8 0 92 0 45.3333 0H0V30Z" fill="#00CBA9"/>
<path d="M0 810L45.7333 840C91.4667 870 182.667 930 274.667 970.031C365.733 1009.69 457.333 1030.31 548 1015.03C640 1000.31 732 949.688 822.667 945C914.267 940.312 1005.33 979.688 1097.33 990C1188.53 1000.31 1280 979.688 1372 949.969C1462.8 919.688 1554.67 880.312 1645.33 870C1737.2 859.688 1828 880.313 1874.67 889.969L1920 900V1080H1874.27C1828.53 1080 1737.33 1080 1645.33 1080C1554.27 1080 1462.67 1080 1372 1080C1280 1080 1188 1080 1097.33 1080C1005.73 1080 914.667 1080 822.667 1080C731.467 1080 640 1080 548 1080C457.2 1080 365.333 1080 274.667 1080C182.8 1080 92 1080 45.3333 1080H0V810Z" fill="#00CBA9"/>
</g>
<defs>
<clipPath id="clip0_16_2">
<rect width="1920" height="1080" fill="white"/>
</clipPath>
</defs>
</svg>
